<svg xmlns="http://www.w3.org/2000/svg" width="40" height="64" viewBox="0 0 40 64" aria-hidden="true">
  <defs>
    <style>
      .rp { fill: #e53935; }
    </style>
  </defs>
  <!-- 頭 -->
  <circle class="rp" cx="20" cy="8.5" r="7.5"/>
  <!-- 身軀（含肩） -->
  <path class="rp" d="
    M9 22
    C9 19.8 10.8 18 13 18
    H27
    c2.2 0 4 1.8 4 4
    v12
    c0 1.7-1.3 3-3 3
    h-2.8
    c-1.1 0-2-.9-2-2
    v-9.5
    h-5.4
    V35
    c0 1.1-.9 2-2 2H13
    c-1.7 0-3-1.3-3-3V22
    Z"/>
  <!-- 手臂（微張左右對稱） -->
  <rect class="rp" x="2"  y="22" width="9" height="6"  rx="3"/>
  <rect class="rp" x="29" y="22" width="9" height="6"  rx="3"/>
  <!-- 雙腿 -->
  <rect class="rp" x="12" y="37" width="6" height="23" rx="3"/>
  <rect class="rp" x="22" y="37" width="6" height="23" rx="3"/>
</svg>
